<svg width="146" height="213" viewBox="0 0 146 213" fill="none" xmlns="http://www.w3.org/2000/svg">
<g opacity="0.5">
<path d="M-24.2788 147.897C10.76 171.459 13.4008 210.54 48.4661 212.11C83.5314 213.68 136.685 182.156 144.035 155.431C151.384 128.706 101.917 116.038 83.7447 83.8312C65.5724 51.6243 78.6016 5.4993 56.8078 0.837515C35.0139 -3.82427 15.9109 41.0015 -20.8658 61.4547C-57.6426 81.9079 -119.009 81.004 -119.72 99.0128" stroke="#DCDCF0"/>
<path d="M-21.9787 145.302C10.8702 167.391 13.346 204.03 46.2197 205.502C79.0934 206.973 128.925 177.419 135.815 152.365C142.705 127.311 96.3298 115.434 79.2933 85.2402C62.2568 55.0462 74.4717 11.804 54.04 7.43361C33.6083 3.06319 15.6992 45.0873 -18.779 64.2622C-53.2572 83.4371 -110.789 82.5897 -111.455 99.473" stroke="#DCDCF0"/>
<path d="M-19.6785 142.699C10.9805 163.316 13.2912 197.512 43.9733 198.885C74.6554 200.259 121.165 172.675 127.596 149.291C134.027 125.907 90.7427 114.823 74.842 86.6414C58.9413 58.4603 70.3419 18.1009 51.2722 14.0219C32.2026 9.94283 15.4874 49.1654 -16.6922 67.0619C-48.8718 84.9585 -102.568 84.1676 -103.19 99.9253" stroke="#DCDCF0"/>
<path d="M-17.3784 140.104C11.0907 159.248 13.2363 191.002 41.7269 192.277C70.2174 193.552 113.405 167.939 119.376 146.225C125.348 124.511 85.1556 114.219 70.3907 88.0504C55.6257 61.8822 66.2119 24.4057 48.5044 20.618C30.7969 16.8303 15.2757 53.2512 -14.6054 69.8695C-44.4864 86.4877 -94.347 85.7533 -94.9247 100.385" stroke="#DCDCF0"/>
<path d="M-15.0783 137.509C11.2009 155.18 13.1815 184.491 39.4805 185.668C65.7794 186.846 105.645 163.203 111.157 143.159C116.669 123.116 79.5685 113.615 65.9393 89.4594C52.3102 65.3042 62.0821 30.7104 45.7367 27.2141C29.3913 23.7177 15.064 57.3371 -12.5185 72.677C-40.1011 88.0169 -86.1262 87.3389 -86.6595 100.846" stroke="#DCDCF0"/>
<path d="M-12.7781 134.906C11.3111 151.105 13.1267 177.973 37.234 179.052C61.3414 180.131 97.8844 158.459 102.937 140.085C107.99 121.712 73.9814 113.003 61.488 90.8605C48.9946 68.7183 57.9522 37.0073 42.9689 33.8024C27.9856 30.5974 14.8523 61.4151 -10.4317 75.4767C-35.7157 89.5382 -77.9054 88.9168 -78.3942 101.298" stroke="#DCDCF0"/>
<path d="M-10.478 132.311C11.4213 147.037 13.0718 171.463 34.9876 172.444C56.9034 173.425 90.1243 153.722 94.7179 137.019C99.3114 120.316 68.3944 112.399 57.0367 92.2695C45.6791 72.1402 53.8223 43.3121 40.2011 40.3984C26.58 37.4848 14.6406 65.5009 -8.34485 78.2842C-31.3303 91.0674 -69.6846 90.5025 -70.129 101.758" stroke="#DCDCF0"/>
<path d="M-8.17783 129.716C11.5315 142.969 13.017 164.952 32.7412 165.835C52.4654 166.718 82.3642 148.986 86.4984 133.953C90.6326 118.921 62.8073 111.795 52.5854 93.6785C42.3635 75.5621 49.6924 49.6168 37.4334 46.9945C25.1743 44.3723 14.4289 69.5868 -6.25802 81.0917C-26.9449 92.5966 -61.4638 92.0882 -61.8637 102.218" stroke="#DCDCF0"/>
<path d="M-5.87767 127.113C11.6418 138.894 12.9621 158.434 30.4948 159.219C48.0274 160.004 74.6041 144.242 78.279 130.88C81.9538 117.517 57.2202 111.183 48.1341 95.0797C39.0479 78.9762 45.5625 55.9137 34.6656 53.5828C23.7687 51.2519 14.2172 73.6648 -4.17118 83.8914C-22.5595 94.118 -53.243 93.6661 -53.5985 102.67" stroke="#DCDCF0"/>
<path d="M-3.57755 124.517C11.752 134.826 12.9073 151.924 28.2484 152.611C43.5894 153.297 66.8441 139.506 70.0595 127.814C73.275 116.121 51.6331 110.579 43.6827 96.4887C35.7324 82.3981 41.4326 62.2184 31.8978 60.1789C22.363 58.1394 14.0054 77.7507 -2.08439 86.6989C-18.1742 95.6472 -45.0222 95.2517 -45.3332 103.131" stroke="#DCDCF0"/>
<path d="M-1.2774 121.922C11.8622 130.758 12.8525 145.414 26.002 146.002C39.1514 146.591 59.084 134.769 61.8401 124.748C64.5962 114.726 46.046 109.975 39.2314 97.8977C32.4168 85.82 37.3028 68.5232 29.1301 66.775C20.9574 65.0268 13.7937 81.8365 0.00244651 89.5065C-13.7888 97.1764 -36.8014 96.8374 -37.068 103.591" stroke="#DCDCF0"/>
<path d="M1.02273 119.319C11.9724 126.682 12.7976 138.895 23.7555 139.386C34.7134 139.876 51.3239 130.025 53.6207 121.674C55.9174 113.322 40.4589 109.363 34.7801 99.2988C29.1012 89.2341 33.1729 74.8201 26.3623 73.3633C19.5517 71.9065 13.582 85.9145 2.08928 92.3062C-9.40344 98.6978 -28.5806 98.4153 -28.8028 104.043" stroke="#DCDCF0"/>
<path d="M3.32288 116.724C12.0826 122.615 12.7428 132.385 21.5091 132.778C30.2754 133.17 43.5638 125.289 45.4012 118.608C47.2386 111.927 34.8718 108.76 30.3287 100.708C25.7857 92.6561 29.043 81.1248 23.5945 79.9594C18.1461 78.7939 13.3703 90.0004 4.17614 95.1137C-5.01803 100.227 -20.3598 100.001 -20.5375 104.503" stroke="#DCDCF0"/>
<path d="M5.62301 114.129C12.1928 118.547 12.6879 125.875 19.2627 126.169C25.8374 126.463 35.8037 120.553 37.1818 115.542C38.5598 110.531 29.2847 108.156 25.8774 102.117C22.4701 96.078 24.9131 87.4296 20.8267 86.5555C16.7404 85.6814 13.1586 94.0862 6.26295 97.9212C-0.632687 101.756 -12.139 101.587 -12.2723 104.963" stroke="#DCDCF0"/>
<path d="M7.92316 111.526C12.303 114.471 12.6331 119.357 17.0163 119.553C21.3994 119.749 28.0436 115.809 28.9623 112.468C29.881 109.127 23.6976 107.544 21.4261 103.518C19.1546 99.4921 20.7832 93.7265 18.059 93.1438C15.3347 92.561 12.9469 98.1642 8.34978 100.721C3.75269 103.278 -3.91818 103.165 -4.00706 105.416" stroke="#DCDCF0"/>
<path d="M10.2233 108.931C12.4132 110.404 12.5783 112.846 14.7699 112.944C16.9614 113.042 20.2835 111.072 20.7429 109.402C21.2022 107.732 18.1105 106.94 16.9748 104.927C15.839 102.914 16.6533 100.031 15.2912 99.7398C13.9291 99.4485 12.7352 102.25 10.4366 103.528C8.13806 104.807 4.30264 104.75 4.2582 105.876" stroke="#DCDCF0"/>
</g>
</svg>
